<?xml version="1.0" encoding="UTF-8" standalone="no"?>
<!DOCTYPE svg PUBLIC "-//W3C//DTD SVG 1.1//EN"
 "http://www.w3.org/Graphics/SVG/1.1/DTD/svg11.dtd">
<!-- Generated by graphviz version 12.1.1 (20240910.0053)
 -->
<!-- Title: INFRA Pages: 1 -->
<svg width="1845pt" height="188pt"
 viewBox="0.00 0.00 1844.55 188.00" xmlns="http://www.w3.org/2000/svg" xmlns:xlink="http://www.w3.org/1999/xlink">
<g id="graph0" class="graph" transform="scale(1 1) rotate(0) translate(4 184)">
<title>INFRA</title>
<polygon fill="white" stroke="none" points="-4,4 -4,-184 1840.55,-184 1840.55,4 -4,4"/>
<!-- dicom&#45;health&#45;imaging&#45;status&#45;change&#45;topic -->
<g id="node1" class="node">
<title>dicom&#45;health&#45;imaging&#45;status&#45;change&#45;topic</title>
<path fill="#cce0ac" stroke="black" stroke-width="2" d="M264.68,-72C264.68,-72 12,-72 12,-72 6,-72 0,-66 0,-60 0,-60 0,-12 0,-12 0,-6 6,0 12,0 12,0 264.68,0 264.68,0 270.68,0 276.68,-6 276.68,-12 276.68,-12 276.68,-60 276.68,-60 276.68,-66 270.68,-72 264.68,-72"/>
<text text-anchor="middle" x="138.34" y="-40.2" font-family="Arial" font-size="14.00">dicom&#45;health&#45;imaging&#45;status&#45;change&#45;topic</text>
<text text-anchor="middle" x="138.34" y="-23.4" font-family="Arial" font-size="14.00">(AWS::SNS::Topic)</text>
</g>
<!-- dicom&#45;health&#45;imaging&#45;state&#45;change&#45;rule -->
<g id="node2" class="node">
<title>dicom&#45;health&#45;imaging&#45;state&#45;change&#45;rule</title>
<path fill="#cce0ac" stroke="black" stroke-width="2" d="M258.07,-180C258.07,-180 18.61,-180 18.61,-180 12.61,-180 6.61,-174 6.61,-168 6.61,-168 6.61,-120 6.61,-120 6.61,-114 12.61,-108 18.61,-108 18.61,-108 258.07,-108 258.07,-108 264.07,-108 270.07,-114 270.07,-120 270.07,-120 270.07,-168 270.07,-168 270.07,-174 264.07,-180 258.07,-180"/>
<text text-anchor="middle" x="138.34" y="-148.2" font-family="Arial" font-size="14.00">dicom&#45;health&#45;imaging&#45;state&#45;change&#45;rule</text>
<text text-anchor="middle" x="138.34" y="-131.4" font-family="Arial" font-size="14.00">(AWS::Events::Rule)</text>
</g>
<!-- dicom&#45;health&#45;imaging&#45;state&#45;change&#45;rule&#45;&gt;dicom&#45;health&#45;imaging&#45;status&#45;change&#45;topic -->
<g id="edge1" class="edge">
<title>dicom&#45;health&#45;imaging&#45;state&#45;change&#45;rule&#45;&gt;dicom&#45;health&#45;imaging&#45;status&#45;change&#45;topic</title>
<path fill="none" stroke="black" d="M138.34,-107.7C138.34,-99.93 138.34,-91.57 138.34,-83.43"/>
<polygon fill="black" stroke="black" points="141.84,-83.66 138.34,-73.66 134.84,-83.66 141.84,-83.66"/>
</g>
<!-- dicom&#45;records -->
<g id="node3" class="node">
<title>dicom&#45;records</title>
<path fill="#ffcfb3" stroke="black" stroke-width="2" d="M467.03,-173.45C467.03,-177.07 426.83,-180 377.34,-180 327.85,-180 287.65,-177.07 287.65,-173.45 287.65,-173.45 287.65,-114.55 287.65,-114.55 287.65,-110.93 327.85,-108 377.34,-108 426.83,-108 467.03,-110.93 467.03,-114.55 467.03,-114.55 467.03,-173.45 467.03,-173.45"/>
<path fill="none" stroke="black" stroke-width="2" d="M467.03,-173.45C467.03,-169.84 426.83,-166.91 377.34,-166.91 327.85,-166.91 287.65,-169.84 287.65,-173.45"/>
<text text-anchor="middle" x="377.34" y="-148.2" font-family="Arial" font-size="14.00">dicom&#45;records</text>
<text text-anchor="middle" x="377.34" y="-131.4" font-family="Arial" font-size="14.00">(AWS::DynamoDB::Table)</text>
</g>
<!-- dicom&#45;processing&#45;queue -->
<g id="node4" class="node">
<title>dicom&#45;processing&#45;queue</title>
<path fill="#cce0ac" stroke="black" stroke-width="2" d="M641.99,-180C641.99,-180 496.69,-180 496.69,-180 490.69,-180 484.69,-174 484.69,-168 484.69,-168 484.69,-120 484.69,-120 484.69,-114 490.69,-108 496.69,-108 496.69,-108 641.99,-108 641.99,-108 647.99,-108 653.99,-114 653.99,-120 653.99,-120 653.99,-168 653.99,-168 653.99,-174 647.99,-180 641.99,-180"/>
<text text-anchor="middle" x="569.34" y="-148.2" font-family="Arial" font-size="14.00">dicom&#45;processing&#45;queue</text>
<text text-anchor="middle" x="569.34" y="-131.4" font-family="Arial" font-size="14.00">(AWS::SQS::Queue)</text>
</g>
<!-- dicom&#45;media&#45;source&#45;bucket -->
<g id="node7" class="node">
<title>dicom&#45;media&#45;source&#45;bucket</title>
<path fill="#fff5cd" stroke="black" stroke-width="2" d="M663.71,-65.45C663.71,-69.07 621.41,-72 569.34,-72 517.27,-72 474.98,-69.07 474.98,-65.45 474.98,-65.45 474.98,-6.55 474.98,-6.55 474.98,-2.93 517.27,0 569.34,0 621.41,0 663.71,-2.93 663.71,-6.55 663.71,-6.55 663.71,-65.45 663.71,-65.45"/>
<path fill="none" stroke="black" stroke-width="2" d="M663.71,-65.45C663.71,-61.84 621.41,-58.91 569.34,-58.91 517.27,-58.91 474.98,-61.84 474.98,-65.45"/>
<text text-anchor="middle" x="569.34" y="-40.2" font-family="Arial" font-size="14.00">dicom&#45;media&#45;source&#45;bucket</text>
<text text-anchor="middle" x="569.34" y="-23.4" font-family="Arial" font-size="14.00">(AWS::S3::Bucket)</text>
</g>
<!-- dicom&#45;processing&#45;queue&#45;&gt;dicom&#45;media&#45;source&#45;bucket -->
<g id="edge2" class="edge">
<title>dicom&#45;processing&#45;queue&#45;&gt;dicom&#45;media&#45;source&#45;bucket</title>
<path fill="none" stroke="black" d="M569.34,-107.7C569.34,-99.93 569.34,-91.57 569.34,-83.43"/>
<polygon fill="black" stroke="black" points="572.84,-83.66 569.34,-73.66 565.84,-83.66 572.84,-83.66"/>
</g>
<!-- dicom&#45;processing&#45;dlq -->
<g id="node5" class="node">
<title>dicom&#45;processing&#45;dlq</title>
<path fill="#cce0ac" stroke="black" stroke-width="2" d="M837.87,-180C837.87,-180 712.81,-180 712.81,-180 706.81,-180 700.81,-174 700.81,-168 700.81,-168 700.81,-120 700.81,-120 700.81,-114 706.81,-108 712.81,-108 712.81,-108 837.87,-108 837.87,-108 843.87,-108 849.87,-114 849.87,-120 849.87,-120 849.87,-168 849.87,-168 849.87,-174 843.87,-180 837.87,-180"/>
<text text-anchor="middle" x="775.34" y="-148.2" font-family="Arial" font-size="14.00">dicom&#45;processing&#45;dlq</text>
<text text-anchor="middle" x="775.34" y="-131.4" font-family="Arial" font-size="14.00">(AWS::SQS::Queue)</text>
</g>
<!-- dicom_processing_users -->
<g id="node6" class="node">
<title>dicom_processing_users</title>
<path fill="#e6e6e6" stroke="black" stroke-width="2" d="M848.64,-72C848.64,-72 694.04,-72 694.04,-72 688.04,-72 682.04,-66 682.04,-60 682.04,-60 682.04,-12 682.04,-12 682.04,-6 688.04,0 694.04,0 694.04,0 848.64,0 848.64,0 854.64,0 860.64,-6 860.64,-12 860.64,-12 860.64,-60 860.64,-60 860.64,-66 854.64,-72 848.64,-72"/>
<text text-anchor="middle" x="771.34" y="-40.2" font-family="Arial" font-size="14.00">dicom_processing_users</text>
<text text-anchor="middle" x="771.34" y="-23.4" font-family="Arial" font-size="14.00">(AWS::Cognito::UserPool)</text>
</g>
<!-- dicom&#45;media&#45;destination&#45;bucket -->
<g id="node8" class="node">
<title>dicom&#45;media&#45;destination&#45;bucket</title>
<path fill="#fff5cd" stroke="black" stroke-width="2" d="M1836.55,-173.45C1836.55,-177.07 1788.5,-180 1729.34,-180 1670.18,-180 1622.13,-177.07 1622.13,-173.45 1622.13,-173.45 1622.13,-114.55 1622.13,-114.55 1622.13,-110.93 1670.18,-108 1729.34,-108 1788.5,-108 1836.55,-110.93 1836.55,-114.55 1836.55,-114.55 1836.55,-173.45 1836.55,-173.45"/>
<path fill="none" stroke="black" stroke-width="2" d="M1836.55,-173.45C1836.55,-169.84 1788.5,-166.91 1729.34,-166.91 1670.18,-166.91 1622.13,-169.84 1622.13,-173.45"/>
<text text-anchor="middle" x="1729.34" y="-148.2" font-family="Arial" font-size="14.00">dicom&#45;media&#45;destination&#45;bucket</text>
<text text-anchor="middle" x="1729.34" y="-131.4" font-family="Arial" font-size="14.00">(AWS::S3::Bucket)</text>
</g>
<!-- dicom_media_cdn -->
<g id="node13" class="node">
<title>dicom_media_cdn</title>
<path fill="#e78f81" stroke="black" stroke-width="2" d="M1823.37,-72C1823.37,-72 1635.31,-72 1635.31,-72 1629.31,-72 1623.31,-66 1623.31,-60 1623.31,-60 1623.31,-12 1623.31,-12 1623.31,-6 1629.31,0 1635.31,0 1635.31,0 1823.37,0 1823.37,0 1829.37,0 1835.37,-6 1835.37,-12 1835.37,-12 1835.37,-60 1835.37,-60 1835.37,-66 1829.37,-72 1823.37,-72"/>
<text text-anchor="middle" x="1729.34" y="-40.2" font-family="Arial" font-size="14.00">dicom_media_cdn</text>
<text text-anchor="middle" x="1729.34" y="-23.4" font-family="Arial" font-size="14.00">(AWS::CloudFront::Distribution)</text>
</g>
<!-- dicom&#45;media&#45;destination&#45;bucket&#45;&gt;dicom_media_cdn -->
<g id="edge3" class="edge">
<title>dicom&#45;media&#45;destination&#45;bucket&#45;&gt;dicom_media_cdn</title>
<path fill="none" stroke="black" d="M1722.94,-107.7C1722.62,-99.93 1722.52,-91.57 1722.64,-83.43"/>
<polygon fill="black" stroke="black" points="1726.13,-83.75 1722.9,-73.66 1719.13,-83.56 1726.13,-83.75"/>
</g>
<!-- dicom&#45;processing&#45;function&#45;code -->
<g id="node9" class="node">
<title>dicom&#45;processing&#45;function&#45;code</title>
<path fill="#fff5cd" stroke="black" stroke-width="2" d="M1605.55,-65.45C1605.55,-69.07 1557.5,-72 1498.34,-72 1439.18,-72 1391.13,-69.07 1391.13,-65.45 1391.13,-65.45 1391.13,-6.55 1391.13,-6.55 1391.13,-2.93 1439.18,0 1498.34,0 1557.5,0 1605.55,-2.93 1605.55,-6.55 1605.55,-6.55 1605.55,-65.45 1605.55,-65.45"/>
<path fill="none" stroke="black" stroke-width="2" d="M1605.55,-65.45C1605.55,-61.84 1557.5,-58.91 1498.34,-58.91 1439.18,-58.91 1391.13,-61.84 1391.13,-65.45"/>
<text text-anchor="middle" x="1498.34" y="-40.2" font-family="Arial" font-size="14.00">dicom&#45;processing&#45;function&#45;code</text>
<text text-anchor="middle" x="1498.34" y="-23.4" font-family="Arial" font-size="14.00">(AWS::S3::Bucket)</text>
</g>
<!-- dicom&#45;processing&#45;api&#45;authorizer&#45;function&#45;code -->
<g id="node10" class="node">
<title>dicom&#45;processing&#45;api&#45;authorizer&#45;function&#45;code</title>
<path fill="#fff5cd" stroke="black" stroke-width="2" d="M1183.69,-65.45C1183.69,-69.07 1115.4,-72 1031.34,-72 947.28,-72 879,-69.07 879,-65.45 879,-65.45 879,-6.55 879,-6.55 879,-2.93 947.28,0 1031.34,0 1115.4,0 1183.69,-2.93 1183.69,-6.55 1183.69,-6.55 1183.69,-65.45 1183.69,-65.45"/>
<path fill="none" stroke="black" stroke-width="2" d="M1183.69,-65.45C1183.69,-61.84 1115.4,-58.91 1031.34,-58.91 947.28,-58.91 879,-61.84 879,-65.45"/>
<text text-anchor="middle" x="1031.34" y="-40.2" font-family="Arial" font-size="14.00">dicom&#45;processing&#45;api&#45;authorizer&#45;function&#45;code</text>
<text text-anchor="middle" x="1031.34" y="-23.4" font-family="Arial" font-size="14.00">(AWS::S3::Bucket)</text>
</g>
<!-- dicom&#45;processing&#45;function -->
<g id="node11" class="node">
<title>dicom&#45;processing&#45;function</title>
<path fill="#b7e0ff" stroke="black" stroke-width="2" d="M1471.04,-180C1471.04,-180 1315.64,-180 1315.64,-180 1309.64,-180 1303.64,-174 1303.64,-168 1303.64,-168 1303.64,-120 1303.64,-120 1303.64,-114 1309.64,-108 1315.64,-108 1315.64,-108 1471.04,-108 1471.04,-108 1477.04,-108 1483.04,-114 1483.04,-120 1483.04,-120 1483.04,-168 1483.04,-168 1483.04,-174 1477.04,-180 1471.04,-180"/>
<text text-anchor="middle" x="1393.34" y="-148.2" font-family="Arial" font-size="14.00">dicom&#45;processing&#45;function</text>
<text text-anchor="middle" x="1393.34" y="-131.4" font-family="Arial" font-size="14.00">(AWS::Lambda::Function)</text>
</g>
<!-- dicom&#45;processing&#45;function&#45;&gt;dicom&#45;processing&#45;function&#45;code -->
<g id="edge5" class="edge">
<title>dicom&#45;processing&#45;function&#45;&gt;dicom&#45;processing&#45;function&#45;code</title>
<path fill="none" stroke="black" d="M1428.3,-107.7C1437.07,-98.85 1446.58,-89.26 1455.67,-80.08"/>
<polygon fill="black" stroke="black" points="1457.91,-82.79 1462.46,-73.22 1452.94,-77.86 1457.91,-82.79"/>
</g>
<!-- dicom_function_iam_role -->
<g id="node14" class="node">
<title>dicom_function_iam_role</title>
<path fill="#e6e6e6" stroke="black" stroke-width="2" d="M1361.16,-72C1361.16,-72 1213.52,-72 1213.52,-72 1207.52,-72 1201.52,-66 1201.52,-60 1201.52,-60 1201.52,-12 1201.52,-12 1201.52,-6 1207.52,0 1213.52,0 1213.52,0 1361.16,0 1361.16,0 1367.16,0 1373.16,-6 1373.16,-12 1373.16,-12 1373.16,-60 1373.16,-60 1373.16,-66 1367.16,-72 1361.16,-72"/>
<text text-anchor="middle" x="1287.34" y="-40.2" font-family="Arial" font-size="14.00">dicom_function_iam_role</text>
<text text-anchor="middle" x="1287.34" y="-23.4" font-family="Arial" font-size="14.00">(AWS::IAM::Role)</text>
</g>
<!-- dicom&#45;processing&#45;function&#45;&gt;dicom_function_iam_role -->
<g id="edge4" class="edge">
<title>dicom&#45;processing&#45;function&#45;&gt;dicom_function_iam_role</title>
<path fill="none" stroke="black" d="M1358.04,-107.7C1349.19,-98.85 1339.6,-89.26 1330.42,-80.08"/>
<polygon fill="black" stroke="black" points="1333.1,-77.81 1323.55,-73.21 1328.15,-82.76 1333.1,-77.81"/>
</g>
<!-- dicom&#45;processing&#45;api&#45;authorizer&#45;function -->
<g id="node12" class="node">
<title>dicom&#45;processing&#45;api&#45;authorizer&#45;function</title>
<path fill="#b7e0ff" stroke="black" stroke-width="2" d="M1154.17,-180C1154.17,-180 908.51,-180 908.51,-180 902.51,-180 896.51,-174 896.51,-168 896.51,-168 896.51,-120 896.51,-120 896.51,-114 902.51,-108 908.51,-108 908.51,-108 1154.17,-108 1154.17,-108 1160.17,-108 1166.17,-114 1166.17,-120 1166.17,-120 1166.17,-168 1166.17,-168 1166.17,-174 1160.17,-180 1154.17,-180"/>
<text text-anchor="middle" x="1031.34" y="-148.2" font-family="Arial" font-size="14.00">dicom&#45;processing&#45;api&#45;authorizer&#45;function</text>
<text text-anchor="middle" x="1031.34" y="-131.4" font-family="Arial" font-size="14.00">(AWS::Lambda::Function)</text>
</g>
<!-- dicom&#45;processing&#45;api&#45;authorizer&#45;function&#45;&gt;dicom_processing_users -->
<g id="edge8" class="edge">
<title>dicom&#45;processing&#45;api&#45;authorizer&#45;function&#45;&gt;dicom_processing_users</title>
<path fill="none" stroke="black" d="M944.4,-107.56C920.12,-97.66 893.57,-86.83 868.73,-76.7"/>
<polygon fill="black" stroke="black" points="870.18,-73.52 859.6,-72.98 867.54,-80 870.18,-73.52"/>
</g>
<!-- dicom&#45;processing&#45;api&#45;authorizer&#45;function&#45;&gt;dicom&#45;processing&#45;api&#45;authorizer&#45;function&#45;code -->
<g id="edge7" class="edge">
<title>dicom&#45;processing&#45;api&#45;authorizer&#45;function&#45;&gt;dicom&#45;processing&#45;api&#45;authorizer&#45;function&#45;code</title>
<path fill="none" stroke="black" d="M1031.34,-107.7C1031.34,-99.93 1031.34,-91.57 1031.34,-83.43"/>
<polygon fill="black" stroke="black" points="1034.84,-83.66 1031.34,-73.66 1027.84,-83.66 1034.84,-83.66"/>
</g>
<!-- dicom&#45;processing&#45;api&#45;authorizer&#45;function&#45;&gt;dicom_function_iam_role -->
<g id="edge6" class="edge">
<title>dicom&#45;processing&#45;api&#45;authorizer&#45;function&#45;&gt;dicom_function_iam_role</title>
<path fill="none" stroke="black" d="M1116.94,-107.56C1140.85,-97.66 1166.99,-86.83 1191.45,-76.7"/>
<polygon fill="black" stroke="black" points="1192.52,-80.05 1200.42,-72.99 1189.84,-73.58 1192.52,-80.05"/>
</g>
<!-- dicom_media_cdn&#45;&gt;dicom&#45;media&#45;destination&#45;bucket -->
<g id="edge9" class="edge">
<title>dicom_media_cdn&#45;&gt;dicom&#45;media&#45;destination&#45;bucket</title>
<path fill="none" stroke="black" d="M1735.74,-72.14C1736.06,-79.91 1736.16,-88.26 1736.05,-96.41"/>
<polygon fill="black" stroke="black" points="1732.55,-96.1 1735.78,-106.19 1739.55,-96.29 1732.55,-96.1"/>
</g>
</g>
</svg>
